<svg width="234" height="411" viewBox="0 0 234 411" fill="none" xmlns="http://www.w3.org/2000/svg">
<path d="M231.807 400.239H154.858L154.858 271.685H231.807V400.239Z" fill="#B2B2B2"/>
<path d="M155.164 400.239H78.2146L78.2146 271.685H155.164V400.239Z" fill="#D1D1D1"/>
<path d="M148.249 150.122L138.981 194.498L167.927 198.225C167.927 198.225 170.437 152.11 167.927 151.861C165.418 151.638 148.249 150.122 148.249 150.122Z" fill="#E7B282"/>
<path d="M175.332 105.547C175.332 105.547 146.411 109.622 141.218 153.624C141.218 153.624 150.436 163.538 162.188 160.482L175.332 105.547Z" fill="#FF9F43"/>
<path d="M187.879 104.032C187.879 104.032 216.055 101.249 225.969 121.101C235.907 140.953 206.937 161.626 216.875 207.119L154.411 203.815V163.688C154.411 163.688 143.032 147.09 159.157 129.3C159.157 129.3 160.126 102.268 187.879 104.032Z" fill="#FF9F43"/>
<path d="M94.9547 213.555C94.9547 213.555 74.705 206.051 69.2637 225.705C63.8223 245.333 41.2619 373.664 41.2619 373.664H59.35L69.9842 322.655C69.9842 322.655 84.9914 305.933 89.5879 270.428L152.698 262.9L94.9547 213.555Z" fill="#F1B686"/>
<path d="M136.348 260.514C136.348 260.514 125.614 260.216 106.557 254.154C87.4999 248.066 73.909 254.502 81.4126 275.969C88.9162 297.411 126.832 396.796 126.832 396.796L141.193 392.498L128.794 328.146C128.794 328.146 125.887 296.219 112.421 277.509C112.421 277.509 140.746 278.926 150.436 277.435C160.076 275.969 136.348 260.514 136.348 260.514Z" fill="#FBC090"/>
<path d="M216.876 207.119C216.876 207.119 239.784 235.916 212.23 264.191C212.23 264.191 198.042 280.714 135.504 278.13C135.504 278.13 119.106 222.772 84.2215 207.89L156.425 198.224L216.876 207.119Z" fill="#443E3E"/>
<path d="M186.339 30.5118C186.339 30.5118 178.885 0.174429 204.7 0.000504793C223.807 -0.123727 229.497 22.71 206.067 37.9904L186.339 30.5118Z" fill="#190D08"/>
<path d="M206.937 43.506C206.937 43.506 211.608 31.5798 198.29 25.5422C184.973 19.5045 180.724 33.7911 180.724 33.7911L206.937 43.506Z" fill="#7367F0"/>
<path d="M156.349 70.639C156.349 70.639 137.118 59.2594 157.915 36.4008C170.909 22.1142 193.669 22.9093 206.34 37.0717C219.012 51.234 207.061 76.2046 207.061 76.2046L198.439 61.8683L190.886 50.7371L180.078 46.4139L171.605 47.0102L164.424 47.9295L158.635 50.3644L156.349 70.639Z" fill="#27160C"/>
<path d="M172.057 79.8334L193.671 77.0574L198.045 111.117L176.432 113.893L172.057 79.8334Z" fill="#FBC69B"/>
<path d="M195.93 87.1865C195.93 87.1865 193.594 99.5848 183.631 102.094C180.525 102.865 177.146 101.97 175.258 99.4109C174.736 98.7152 174.363 97.9201 174.239 97.0256C173.767 93.4478 183.208 87.1865 183.208 87.1865H195.93Z" fill="#F0BB8F"/>
<path d="M180.699 96.0069L181.817 95.8578C194.216 94.2677 202.986 82.9129 201.396 70.5146L200.129 60.6755C198.539 48.2772 187.184 39.5064 174.786 41.0966L173.668 41.2457C161.269 42.8358 152.499 54.1906 154.089 66.5889L155.356 76.428C156.946 88.8263 168.301 97.5971 180.699 96.0069Z" fill="#FBC69B"/>
<path d="M198.961 68.054C198.961 68.054 183.407 62.9853 183.804 45.5184C183.804 45.5184 182.811 32.499 196.426 44.5494C210.042 56.5999 198.961 68.054 198.961 68.054Z" fill="#27160C"/>
<path d="M195.532 72.825C196.079 76.9992 199.88 79.9558 204.079 79.4092C208.253 78.8626 211.21 75.0611 210.663 70.887C210.117 66.7128 206.315 63.756 202.116 64.3026C197.942 64.8244 194.985 68.6508 195.532 72.825Z" fill="#F0BB8F"/>
<path d="M190.538 59.3081L191.234 64.824C192.824 72.6009 196.104 70.2404 197.296 66.8862L190.538 59.3081Z" fill="#27160C"/>
<path d="M151.703 56.501C151.703 56.501 167.579 68.4024 190.86 50.7615C206.911 38.6117 182.636 34.2388 182.636 34.2388L160.001 38.9098L151.703 56.501Z" fill="#27160C"/>
<path d="M198.017 111.088C198.017 111.088 184.426 135.338 174.785 127.884C164.375 119.834 187.879 104.032 187.879 104.032L198.017 111.088Z" fill="#FBC69B"/>
<path d="M192.004 160.483C192.004 160.483 183.606 175.962 177.867 188.112L116.645 184.584C116.645 184.584 104.496 174.646 94.9794 183.044L104.371 194.324L181.022 211.294C183.954 211.94 187.01 211.095 189.172 209.058C195.955 202.647 210.713 187.715 217.869 172.484L192.004 160.483Z" fill="#FBC090"/>
<path d="M22.0802 136.605H97.3148C99.7994 136.605 101.936 138.344 102.433 140.754L116.595 207.218C117.291 210.473 114.807 213.554 111.477 213.554H34.9754C32.466 213.554 30.3043 211.765 29.8322 209.305L16.9122 142.841C16.3159 139.611 18.8005 136.605 22.0802 136.605Z" fill="#574CCB"/>
<path d="M17.7578 136.605H92.9924C95.477 136.605 97.6138 138.344 98.1107 140.754L112.273 207.218C112.969 210.473 110.484 213.554 107.155 213.554H30.653C28.1435 213.554 25.9819 211.765 25.5098 209.305L12.5898 142.841C11.9935 139.611 14.4532 136.605 17.7578 136.605Z" fill="url(#paint0_linear)"/>
<path d="M114.608 207.889H166.015C167.581 207.889 168.848 209.156 168.848 210.721C168.848 212.287 167.581 213.554 166.015 213.554H113.614L114.608 207.889Z" fill="#574CCB"/>
<path d="M64.3444 173.352C64.3444 177.874 60.6671 181.551 56.1451 181.551C51.6231 181.551 47.9458 177.874 47.9458 173.352C47.9458 168.83 51.6231 165.152 56.1451 165.152C60.6671 165.152 64.3444 168.805 64.3444 173.352Z" fill="white"/>
<path d="M217.869 111.436C218.888 111.883 252.604 128.456 219.435 179.813C219.435 179.813 198.241 180.161 185.967 164.383C185.942 164.383 190.016 99.2116 217.869 111.436Z" fill="#FF9F43"/>
<path d="M145.095 389.69C144.648 388.348 143.182 387.851 142.188 388.721C140.25 390.435 136.771 392.547 131.653 392.025C126.311 391.503 124.323 388.348 123.553 386.087C123.155 384.894 122.013 384.298 120.994 384.795L88.644 401.044C86.6811 402.038 85.1406 403.877 84.3953 406.163C83.6747 408.324 85.1158 410.635 87.1532 410.585L143.032 409.045C145.244 408.995 146.909 406.834 146.735 404.324L145.815 392C145.79 391.802 145.766 391.603 145.691 391.404L145.095 389.69Z" fill="#F3F3F3"/>
<path d="M63.5239 368.421C63.4245 367.005 62.1574 366.135 60.9896 366.731C58.6789 367.874 54.778 368.992 49.9578 367.154C44.9637 365.241 43.8456 361.687 43.6966 359.302C43.622 358.06 42.6779 357.165 41.5598 357.389L6.07927 364.619C3.91764 365.067 1.9548 366.433 0.613094 368.446C-0.654068 370.334 0.141029 372.943 2.10389 373.415L56.4427 386.559C58.5795 387.08 60.766 385.441 61.238 382.956L63.5736 370.831C63.6233 370.632 63.6233 370.433 63.6233 370.21L63.5239 368.421Z" fill="#F3F3F3"/>
<defs>
<linearGradient id="paint0_linear" x1="19.5004" y1="175" x2="105.5" y2="175" gradientUnits="userSpaceOnUse">
<stop stop-color="#756AF0"/>
<stop offset="0.273268" stop-color="#786DF1"/>
<stop offset="0.511791" stop-color="#7368F0"/>
<stop offset="0.750314" stop-color="#786CF4"/>
<stop offset="1" stop-color="#897FF1"/>
</linearGradient>
</defs>
</svg>
