<?xml version="1.0" encoding="utf-8"?>
<svg width="414px" height="158px" viewBox="0 0 414 158" version="1.1" xmlns:xlink="http://www.w3.org/1999/xlink" xmlns="http://www.w3.org/2000/svg">
  <desc>Created with Lunacy</desc>
  <g id="Group-4" transform="translate(2 2)">
    <path d="M0 0L0 60.5011Q0 60.6458 0.0104651 60.7902Q0.0209303 60.9346 0.0418058 61.0778Q0.0626813 61.221 0.0938579 61.3624Q0.125035 61.5037 0.166349 61.6425Q0.207664 61.7812 0.2589 61.9166Q0.310136 62.052 0.371026 62.1833Q0.431916 62.3146 0.50214 62.4412Q0.572365 62.5678 0.651557 62.6889Q0.730749 62.8101 0.818494 62.9252Q0.906238 63.0403 1.00208 63.1488Q1.09791 63.2573 1.20135 63.3586Q1.30478 63.4598 1.41526 63.5533Q1.52574 63.6469 1.64269 63.7321Q1.75964 63.8174 1.88246 63.8941Q2.00527 63.9707 2.1333 64.0382Q2.26133 64.1057 2.39391 64.1638L58.5121 88.756L112.279 1.68209L0 0Z" transform="translate(151.7896 64.61557)" id="Path" fill="#ED4647" stroke="none" />
    <path d="M0 87.8846L51.5629 61.9906Q51.8102 61.8664 52.038 61.7094Q52.2659 61.5523 52.4699 61.3653Q52.6739 61.1784 52.8502 60.9651Q53.0266 60.7519 53.1719 60.5163Q53.3171 60.2808 53.4286 60.0275Q53.54 59.7743 53.6155 59.508Q53.691 59.2418 53.7292 58.9677Q53.7673 58.6936 53.7673 58.4169L53.7673 0.810737L3.58162e-13 -1.52456e-16L0 87.8846Z" transform="translate(210.3018 64.80212)" id="Path" fill="#C93334" stroke="none" />
    <path d="M0 20.1364L0 37.208L64.9461 66.6242L124.193 37.208L124.193 20.1364L64.9461 1.18348e-13L0 20.1364Z" transform="translate(146.583 28.00201)" id="Path-2" fill="#FC5A56" stroke="none" />
    <path d="M40.0271 44.4716C31.9578 46.6671 0 43.8553 0 43.8553C0 43.8553 5.61157 7.93852 27 1.75489C48.3884 -4.42875 62.1933 6.82262 62.1933 18.4751C62.1933 28.8834 55.2843 40.3205 40.0271 44.4716ZM32.2878 38.9417C24.5121 40.8943 2.06055 39.6025 2.06055 39.6025C2.06055 39.6025 11.6941 9.47155 27.9848 5.97235C44.2755 2.47315 54.0605 10.1775 54.0605 20.5407C54.0605 26.2103 46.9897 35.2499 32.2878 38.9417Z" transform="matrix(-1 0 0 1 210.7764 7.923218)" id="Path-7" fill="#FFC527" fill-rule="evenodd" stroke="none" />
    <path d="M0 35.6677L11.0824 18.0575L29.0068 29.8241L33.0438 5.62869L52.9458 18.0575L58.1492 0" transform="translate(298.583 9.002014)" id="Path-8" fill="none" stroke="#ED4647" stroke-width="4" />
    <path d="M0 33.1227L10.2916 16.769L26.937 27.696L30.686 5.22706L49.1679 16.769L54 0" transform="matrix(-0.1564344 -0.9876884 0.9876884 -0.1564344 84.21289 58.51669)" id="Path-8" fill="none" stroke="#FFC527" stroke-width="4" />
    <path d="M5.5 11C8.53757 11 11 8.53757 11 5.5C11 2.46243 8.53757 0 5.5 0C2.46243 0 0 2.46243 0 5.5C0 8.53757 2.46243 11 5.5 11Z" transform="translate(107.583 78.68683)" id="Oval" fill="#ED4647" stroke="none" />
    <path d="M4 8C6.20914 8 8 6.20914 8 4C8 1.79086 6.20914 0 4 0C1.79086 0 0 1.79086 0 4C0 6.20914 1.79086 8 4 8Z" transform="translate(401.583 91.00201)" id="Oval" fill="#ED4647" stroke="none" />
    <path d="M4 8C6.20914 8 8 6.20914 8 4C8 1.79086 6.20914 0 4 0C1.79086 0 0 1.79086 0 4C0 6.20914 1.79086 8 4 8Z" transform="translate(375.583 132.002)" id="Oval" fill="#F7B500" stroke="none" />
    <path d="M5.5 11C8.53757 11 11 8.53757 11 5.5C11 2.46243 8.53757 0 5.5 0C2.46243 0 0 2.46243 0 5.5C0 8.53757 2.46243 11 5.5 11Z" transform="translate(59.58301 46.68683)" id="Oval" fill="#F7B500" stroke="none" />
    <path d="M5.5 11C8.53757 11 11 8.53757 11 5.5C11 2.46243 8.53757 0 5.5 0C2.46243 0 0 2.46243 0 5.5C0 8.53757 2.46243 11 5.5 11Z" transform="translate(26.58301 102.6868)" id="Oval" fill="#F7B500" stroke="none" />
    <path d="M5.5 11C8.53757 11 11 8.53757 11 5.5C11 2.46243 8.53757 0 5.5 0C2.46243 0 0 2.46243 0 5.5C0 8.53757 2.46243 11 5.5 11Z" transform="translate(319.583 83.00201)" id="Oval" fill="#F7B500" stroke="none" />
    <path d="M6 12C9.31371 12 12 9.31371 12 6C12 2.68629 9.31371 0 6 0C2.68629 0 0 2.68629 0 6C0 9.31371 2.68629 12 6 12Z" transform="translate(373.583 39.00201)" id="Oval" fill="none" stroke="#F7B500" stroke-width="2" />
    <path d="M8.5 17C13.1944 17 17 13.1944 17 8.5C17 3.80558 13.1944 0 8.5 0C3.80558 0 0 3.80558 0 8.5C0 13.1944 3.80558 17 8.5 17Z" transform="translate(70.58301 104.6868)" id="Oval" fill="none" stroke="#ED4647" stroke-width="2" />
    <path d="M5 10C7.76142 10 10 7.76142 10 5C10 2.23858 7.76142 0 5 0C2.23858 0 0 2.23858 0 5C0 7.76142 2.23858 10 5 10Z" transform="translate(113.583 131.6868)" id="Oval" fill="none" stroke="#F7B500" stroke-width="2" />
    <path d="M0 26.2622L15.5193 0L26.5828 23.7261L37.5828 11.8631L48.1697 26.2622" transform="translate(0 57.92462)" id="Path-9" fill="none" stroke="#FFD562" stroke-width="4" />
    <path d="M0 26.2622L15.5193 0L26.5828 23.7261L37.5828 11.8631L48.1697 26.2622" transform="matrix(-0.8571673 0.515038 -0.515038 -0.8571673 402.0757 94.98407)" id="Path-9" fill="none" stroke="#FFD562" stroke-width="4" />
    <path d="M0 7.53607C0 7.53607 5.34707 1.07846e-13 14 -2.04266e-19C22.6529 -1.07094e-13 28 7.03607 28 7.03607" transform="matrix(-0.8571673 -0.515038 0.515038 -0.8571673 72.64258 150.8952)" id="Path-10" fill="none" stroke="#F7B500" stroke-width="3" />
    <path d="M0 7.53607C0 7.53607 5.34707 1.07846e-13 14 -2.04266e-19C22.6529 -1.07094e-13 28 7.03607 28 7.03607" transform="matrix(0.4067367 0.9135454 -0.9135454 0.4067367 311.3311 107.4478)" id="Path-10" fill="none" stroke="#E02020" stroke-width="3" />
    <path d="M0 0L0 62.4021L12.9309 68.1233L12.9309 4.2779L0 0Z" transform="translate(170.583 73.73541)" id="Path-3" fill="#F7B500" stroke="none" />
    <path d="M0 0L0 62.4021L12.9309 68.1233L12.9309 6.58142L0 0Z" transform="matrix(1 0 0 -1 233.583 141.8587)" id="Path-3" fill="#E3A806" stroke="none" />
    <path d="M0 21.7401L64.9461 49.3505L124.193 21.7401L64.9461 8.7664e-14L0 21.7401Z" transform="translate(146.583 27.08307)" id="Path-2" fill="#DC3A3B" stroke="none" />
    <path d="M0 17.7129L13.0272 23.7261L13.0272 5.72448L0 0L0 17.7129Z" transform="translate(168.4219 57.92462)" id="Path-4" fill="#F7B500" stroke="none" />
    <path d="M0 18.8444L13.0272 24.8576L13.0272 6.85591L0 0L0 18.8444Z" transform="matrix(1 0 0 -1 235.583 83.5444)" id="Path-4" fill="#F7B500" stroke="none" />
    <path d="M71.5617 24.011L11.8932 0L0 4.2234L58.5346 29.9397" transform="translate(177.0483 34.67584)" id="Path-5" fill="#F7B500" stroke="none" />
    <path d="M74.1573 25.1974L12.8658 0L0 5.24594L61.5457 29.9253L74.1573 25.1974Z" transform="matrix(1 0 0 -1 168.583 63.64911)" id="Path-5" fill="#F7B500" stroke="none" />
    <path d="M71.5617 24.011L11.8932 0L0 4.2234L58.5346 29.9397" transform="translate(177.0483 34.67584)" id="Path-5" fill="#F7B500" stroke="none" />
    <path d="M33.4668 37.1949C26.72 39.0311 0 36.6794 0 36.6794C0 36.6794 4.69185 6.63957 22.5748 1.46774C40.4577 -3.70409 52 5.70626 52 15.4521C52 24.1573 46.2233 33.723 33.4668 37.1949ZM28.2517 32.9928C22.2704 34.6664 5 33.5591 5 33.5591C5 33.5591 12.4105 7.73262 24.9418 4.73331C37.4731 1.734 45 8.33772 45 17.2205C45 22.0802 39.5609 29.8284 28.2517 32.9928Z" transform="translate(208.583 15.68683)" id="Path-7" fill="#FFC527" fill-rule="evenodd" stroke="none" />
    <path d="M14.8026 18.5974C11.8185 19.5156 0 18.3397 0 18.3397C0 18.3397 2.07524 3.31978 9.98499 0.73387C17.8947 -1.85204 23 2.85313 23 7.72603C23 12.0787 20.4449 16.8615 14.8026 18.5974ZM13.3983 16.7464C10.7068 17.5832 2.93506 17.0296 2.93506 17.0296C2.93506 17.0296 6.26977 4.11631 11.9089 2.61666C17.5479 1.117 20.9351 4.41886 20.9351 8.86023C20.9351 11.2901 18.4875 15.1642 13.3983 16.7464Z" transform="matrix(0.9816272 -0.190809 0.190809 0.9816272 207.4238 32.35522)" id="Path-7" fill="#FFC527" fill-rule="evenodd" stroke="none" />
    <path d="M22.5257 26.4279C17.9846 27.7326 0 26.0617 0 26.0617C0 26.0617 3.15797 4.71759 15.1946 1.04287C27.2311 -2.63185 35 4.05445 35 10.9791C35 17.1644 31.1118 23.9611 22.5257 26.4279ZM17.8575 23.2949C13.5211 24.4665 1 23.6914 1 23.6914C1 23.6914 6.37258 5.61284 15.4578 3.51332C24.543 1.4138 30 6.0364 30 12.2543C30 15.6561 26.0566 21.0799 17.8575 23.2949Z" transform="matrix(-1 0 0 1 210.583 23.68683)" id="Path-7" fill="#FFC527" fill-rule="evenodd" stroke="none" />
  </g>
</svg>