<svg width="70" height="59" viewBox="0 0 70 59" fill="none" xmlns="http://www.w3.org/2000/svg">
<path d="M63.2258 40.9354H60.9677V9.32254H54.1936V30.5889C53.5039 29.8425 52.7486 29.1605 51.9355 28.5475V14.9677H45.1613V25.4697C44.4264 25.3197 43.669 25.2365 42.9032 25.1852V20.6129H36.129V26.1169C34.9934 26.5199 33.914 27.0403 32.9035 27.6649C32.6763 27.0359 32.426 26.4184 32.1234 25.8291L33.9085 23.329L27.7677 17.1861L25.2665 18.9722C24.5135 18.5874 23.7268 18.2622 22.9136 18.0014L22.4092 14.9677H13.7209L13.2165 18.0014C12.4034 18.2622 11.6167 18.5874 10.8636 18.9722L8.363 17.1861L2.22168 23.329L4.00674 25.8291C3.62084 26.5811 3.29558 27.3678 3.03483 28.182L0 28.6886V37.3758L3.03372 37.8813C3.29448 38.6956 3.62084 39.4823 4.00564 40.2342L2.22058 42.7337L8.36134 48.8773L10.8625 47.0911C11.6156 47.4759 12.4023 47.8012 13.2154 48.0619L13.7198 51.0967H22.4081L22.9125 48.063C23.7257 47.8023 24.5123 47.477 25.2654 47.0922L25.7169 47.4147C27.965 54.136 34.307 59 41.7742 59C50.732 59 58.0674 52.0058 58.6523 43.1935H70V0.290283H63.2258V40.9354ZM56.4516 11.5806H58.7097V40.9354H58.6523C58.477 38.297 57.7014 35.8245 56.4516 33.6519V11.5806ZM47.4194 17.2258H49.6774V27.0982C48.9558 26.715 48.1983 26.3947 47.4194 26.118V17.2258ZM38.3871 22.8709H40.6452V25.1863C39.8794 25.2376 39.122 25.3208 38.3871 25.4713V22.8709ZM24.788 44.7834C23.8012 45.349 22.7367 45.789 21.6198 46.0916L20.9207 46.2813L20.494 48.8387H15.6339L15.2072 46.2813L14.5082 46.0916C13.3924 45.789 12.3267 45.349 11.3399 44.7834L10.7109 44.4229L8.60556 45.9279L5.16775 42.4912L6.67276 40.3836L6.31222 39.7546C5.7477 38.77 5.30667 37.7055 5.00402 36.5875L4.81548 35.8884L2.25806 35.4628V30.6016L4.81548 30.176L5.00512 29.477C5.30998 28.3579 5.7488 27.2922 6.31332 26.3098L6.67386 25.6808L5.16885 23.5733L8.60667 20.1366L10.712 21.6416L11.341 21.281C12.3278 20.7154 13.3924 20.2755 14.5093 19.9728L15.2083 19.7832L15.635 17.2258H20.4951L20.9218 19.7832L21.6209 19.9728C22.7367 20.2755 23.8023 20.7154 24.7891 21.281L25.4181 21.6416L27.5235 20.1366L30.9613 23.5733L29.4563 25.6808L29.8168 26.3098C30.3042 27.1588 30.679 28.0789 30.974 29.0321C30.3135 29.5806 29.7071 30.1892 29.1371 30.8293C28.1084 25.6549 23.536 21.7419 18.0645 21.7419C11.8389 21.7419 6.77419 26.8066 6.77419 33.0322C6.77419 39.2579 11.8389 44.3225 18.0645 44.3225C20.5304 44.3225 22.9026 43.4884 24.8398 42.0342C24.8398 42.0441 24.8387 42.0546 24.8387 42.0645C24.8387 42.9394 24.9258 43.7917 25.0543 44.6307L24.788 44.7834ZM27.0687 33.6971C26.2186 35.1866 25.5818 36.8102 25.2136 38.5363C23.5085 40.7458 20.8568 42.0645 18.0645 42.0645C13.0842 42.0645 9.03226 38.0125 9.03226 33.0322C9.03226 28.0519 13.0842 24 18.0645 24C23.0448 24 27.0968 28.0519 27.0968 33.0322C27.0968 33.2571 27.0841 33.4771 27.0687 33.6971ZM41.7742 56.7419C33.6813 56.7419 27.0968 50.1573 27.0968 42.0645C27.0968 33.9716 33.6813 27.3871 41.7742 27.3871C49.8671 27.3871 56.4516 33.9716 56.4516 42.0645C56.4516 50.1573 49.8671 56.7419 41.7742 56.7419ZM65.4839 2.54835H67.7419V40.9354H65.4839V2.54835Z" fill="#7367F0"/>
</svg>
