<svg width="70" height="70" viewBox="0 0 70 70" fill="none" xmlns="http://www.w3.org/2000/svg">
<path d="M6.77417 22.5806H11.2903V24.8386H6.77417V22.5806Z" fill="#7367F0"/>
<path d="M66.6129 18.0645C68.4801 18.0645 70 16.5446 70 14.6774V3.3871C70 1.51989 68.4801 0 66.6129 0H50.8064C48.9392 0 47.4194 1.51989 47.4194 3.3871V14.6774C47.4194 16.5446 48.9392 18.0645 50.8064 18.0645H54.1936V20.3226H51.9355V22.5806H57.5806V33.871H52.9212C52.0204 32.9917 50.9112 32.3186 49.6697 31.9481C49.6752 31.834 49.6774 31.7237 49.6774 31.6129C49.6774 26.6326 45.6255 22.5806 40.6452 22.5806C37.5552 22.5806 34.683 24.1882 33.038 26.7594C31.8792 26.239 30.6261 25.9677 29.3548 25.9677C25.6078 25.9677 22.2339 28.3294 20.9141 31.7937C20.0563 31.9779 19.2569 32.3075 18.5309 32.7419H10.1613V29.3548H14.6774C16.5446 29.3548 18.0645 27.8349 18.0645 25.9677V3.3871C18.0645 1.51989 16.5446 0 14.6774 0H3.3871C1.51989 0 0 1.51989 0 3.3871V25.9677C0 27.8349 1.51989 29.3548 3.3871 29.3548H7.90323V35H16.1295C15.6493 35.6852 15.2767 36.4416 15.0319 37.2581H10.1613V49.6774H5.64516C3.77796 49.6774 2.25806 51.1973 2.25806 53.0645V63.2258H0V66.6129C0 68.4801 1.51989 70 3.3871 70H21.4516C23.3188 70 24.8387 68.4801 24.8387 66.6129V63.2258H22.5806V53.0645C22.5806 51.1973 21.0608 49.6774 19.1935 49.6774H12.4194V39.5161H14.6774C14.6774 43.8729 18.2238 47.4194 22.5806 47.4194H47.4194C51.3925 47.4194 54.6814 44.4683 55.2322 40.6452H59.8387V49.6774H51.9355V70H70V49.6774H62.0968V38.3871H55.2278C55.1103 37.5921 54.8667 36.8358 54.5254 36.129H59.8387V22.5806H65.4839V20.3226H63.2258V18.0645H66.6129ZM15.8065 18.0645H2.25806V6.77419H15.8065V18.0645ZM3.3871 2.25806H14.6774C15.3004 2.25806 15.8065 2.76414 15.8065 3.3871V4.51613H2.25806V3.3871C2.25806 2.76414 2.76414 2.25806 3.3871 2.25806ZM2.25806 25.9677V20.3226H15.8065V25.9677C15.8065 26.5907 15.3004 27.0968 14.6774 27.0968H3.3871C2.76414 27.0968 2.25806 26.5907 2.25806 25.9677ZM22.5806 66.6129C22.5806 67.2359 22.0746 67.7419 21.4516 67.7419H3.3871C2.76414 67.7419 2.25806 67.2359 2.25806 66.6129V65.4839H22.5806V66.6129ZM20.3226 53.0645V63.2258H4.51613V53.0645C4.51613 52.4416 5.02221 51.9355 5.64516 51.9355H19.1935C19.8165 51.9355 20.3226 52.4416 20.3226 53.0645ZM54.1936 67.7419V60.9677H67.7419V67.7419H54.1936ZM67.7419 58.7097H54.1936V51.9355H67.7419V58.7097ZM47.4194 45.1613H22.5806C19.4681 45.1613 16.9355 42.6287 16.9355 39.5161C16.9355 36.6621 19.0717 34.2547 21.9031 33.9162L22.644 33.8269L22.853 33.1102C23.6882 30.2341 26.363 28.2258 29.3548 28.2258C30.6013 28.2258 31.8251 28.5759 32.8979 29.2363L33.9757 29.9012L34.5132 28.7528C35.6246 26.374 38.0315 24.8387 40.6452 24.8387C44.3812 24.8387 47.4194 27.8768 47.4194 31.6129C47.4194 31.9244 47.3912 32.2563 47.33 32.657L47.1597 33.7739L48.2761 33.9432C51.006 34.36 53.0645 36.7558 53.0645 39.5161C53.0645 42.6287 50.5319 45.1613 47.4194 45.1613ZM50.8064 2.25806H66.6129C67.2359 2.25806 67.7419 2.76414 67.7419 3.3871V11.2903H49.6774V3.3871C49.6774 2.76414 50.1835 2.25806 50.8064 2.25806ZM49.6774 14.6774V13.5484H67.7419V14.6774C67.7419 15.3004 67.2359 15.8065 66.6129 15.8065H50.8064C50.1835 15.8065 49.6774 15.3004 49.6774 14.6774ZM60.9677 20.3226H56.4516V18.0645H60.9677V20.3226Z" fill="#7367F0"/>
<path d="M56.4517 54.1936H58.7097V56.4517H56.4517V54.1936Z" fill="#7367F0"/>
<path d="M63.2258 63.2258H65.4839V65.4839H63.2258V63.2258Z" fill="#7367F0"/>
<path d="M60.9678 54.1936H65.4839V56.4517H60.9678V54.1936Z" fill="#7367F0"/>
<path d="M56.4517 63.2258H60.9678V65.4839H56.4517V63.2258Z" fill="#7367F0"/>
</svg>
