<svg width="70" height="70" viewBox="0 0 70 70" fill="none" xmlns="http://www.w3.org/2000/svg">
<g clip-path="url(#clip0_449:427)">
<path d="M10.951 18.8975H11.0257C13.8348 18.8945 16.1109 16.6184 16.1139 13.8093V12.1151C16.1109 9.30655 13.8348 7.03047 11.0257 7.02686H10.951C8.14189 7.03047 5.8658 9.30655 5.86279 12.1151V13.8087C5.8652 16.6178 8.14189 18.8945 10.951 18.8975ZM8.02143 12.1157C8.02323 10.4985 9.33323 9.1879 10.951 9.18609H11.0257C12.6429 9.1879 13.9535 10.4985 13.9553 12.1157V13.8093C13.9535 15.4265 12.6429 16.7371 11.0257 16.7389H10.951C9.33323 16.7371 8.02323 15.4265 8.02143 13.8093V12.1157Z" fill="#7367F0"/>
<path d="M16.9758 20.5212H14.8461C14.5714 20.5218 14.3076 20.6266 14.1077 20.8146L11.1432 23.596L8.29791 20.8266C8.09614 20.6309 7.82631 20.5212 7.54504 20.5212H5.28401C3.79995 20.5212 2.38455 21.1452 1.38353 22.2402C0.382514 23.3358 -0.111972 24.8018 0.021738 26.2798V38.6667C0.021738 40.4946 1.50339 41.9763 3.33136 41.9775H3.37051C3.8138 41.9727 4.25167 41.8763 4.65642 41.6944L5.22499 64.0939C5.27377 65.4719 6.12783 66.6928 7.40591 67.2107C8.68398 67.7281 10.147 67.4468 11.1414 66.491C12.137 67.448 13.6029 67.7293 14.8822 67.2083C16.1615 66.6873 17.0138 65.4623 17.0583 64.0824L17.6263 41.7125C18.6496 42.1491 19.8235 42.0425 20.7516 41.4294C21.6798 40.8157 22.2387 39.7779 22.2387 38.6649V26.2804C22.3718 24.8024 21.8779 23.3364 20.8769 22.2408C19.8753 21.1452 18.4599 20.5212 16.9758 20.5212ZM13.5608 65.3075C12.8206 65.3069 12.2207 64.707 12.2201 63.9674V41.5294H10.0614V63.9674C10.0608 64.6955 9.47901 65.29 8.75084 65.3063C8.02266 65.3225 7.41494 64.7546 7.38181 64.027L6.73916 38.7112H15.5435L14.9003 64.015C14.8768 64.7371 14.2829 65.3099 13.5608 65.3075ZM20.0849 26.1196C20.0813 26.1557 20.0795 26.1925 20.0795 26.2286V38.6649C20.0722 39.2973 19.5573 39.8068 18.9242 39.8068C18.2918 39.8068 17.7769 39.2973 17.7696 38.6649V36.0286L17.7823 35.5275H17.7696V30.3405H15.611V36.0033L15.5972 36.5526H6.68496L6.65785 35.4733H6.6446V30.3411H4.48597V38.6046C4.50042 39.2527 3.99389 39.7924 3.34642 39.8195C3.03865 39.8231 2.74232 39.7032 2.52308 39.487C2.30445 39.2702 2.18097 38.9756 2.18097 38.6673V26.2292C2.18097 26.1925 2.17917 26.1563 2.17555 26.1202C2.08641 25.2408 2.37371 24.3651 2.96637 23.7098C3.55903 23.0545 4.40104 22.6805 5.28461 22.6805H7.10717L10.3764 25.8618C10.3813 25.8666 10.3867 25.8696 10.3921 25.8745C10.4246 25.9052 10.4583 25.9335 10.4945 25.96C10.4969 25.9618 10.4993 25.9642 10.5023 25.966C10.5415 25.9937 10.5824 26.019 10.6246 26.0413C10.633 26.0455 10.6414 26.0497 10.6505 26.0539C10.6896 26.0738 10.73 26.0907 10.7709 26.1057C10.7746 26.1069 10.7782 26.1088 10.7824 26.11C10.8264 26.1244 10.8709 26.1365 10.9167 26.1455C10.9275 26.1473 10.9384 26.1491 10.9486 26.1509C10.989 26.1581 11.0299 26.1624 11.0709 26.1648C11.0769 26.1648 11.0829 26.166 11.0896 26.1666C11.1353 26.1678 11.1811 26.1666 11.2269 26.1624C11.2377 26.1612 11.2486 26.1599 11.2594 26.1587C11.3046 26.1533 11.3497 26.1455 11.3937 26.1347L11.3985 26.1334C11.4461 26.1208 11.4931 26.1051 11.5389 26.0859C11.5425 26.0847 11.5461 26.0841 11.5497 26.0823C11.5539 26.081 11.5575 26.078 11.5612 26.0768C11.6497 26.0377 11.7328 25.9877 11.8081 25.9269C11.8177 25.9184 11.8274 25.9106 11.837 25.9022C11.8466 25.8937 11.8587 25.8847 11.8689 25.8751L15.2737 22.6805H16.977C17.86 22.6805 18.702 23.0545 19.2947 23.7098C19.8867 24.3651 20.174 25.2408 20.0849 26.1196Z" fill="#7367F0"/>
<path d="M58.6922 18.8975H58.7675C61.576 18.8945 63.8521 16.6184 63.8557 13.8093V12.1151C63.8521 9.30655 61.576 7.03047 58.7675 7.02686H58.6922C55.8831 7.03047 53.607 9.30655 53.604 12.1151V13.8087C53.607 16.6178 55.8831 18.8945 58.6922 18.8975ZM55.7626 12.1157C55.7644 10.4985 57.075 9.1879 58.6922 9.18609H58.7675C60.3846 9.1879 61.6952 10.4985 61.6971 12.1157V13.8093C61.6952 15.4265 60.3846 16.7371 58.7675 16.7389H58.6922C57.075 16.7371 55.7644 15.4265 55.7626 13.8093V12.1157Z" fill="#7367F0"/>
<path d="M64.7176 20.5212H62.5872C62.3126 20.5218 62.0488 20.6266 61.8488 20.8146L58.8843 23.5954L56.0391 20.8266C55.8373 20.6309 55.5675 20.5212 55.2862 20.5212H53.0252C51.5411 20.5212 50.1257 21.1452 49.1241 22.2402C48.1231 23.3358 47.6292 24.8018 47.7623 26.2798V38.6667C47.7629 40.4946 49.2446 41.9763 51.0725 41.9775H51.1111C51.5544 41.9721 51.9922 41.8757 52.3964 41.6944L52.9649 64.0933C53.0137 65.4713 53.8678 66.6922 55.1459 67.2101C56.4239 67.7281 57.8869 67.4462 58.8813 66.491C59.8775 67.448 61.3429 67.7287 62.6222 67.2077C63.9015 66.6873 64.7543 65.4623 64.7983 64.0818L65.3662 41.7125C66.3895 42.1485 67.5634 42.0419 68.4916 41.4288C69.4197 40.8151 69.9786 39.7773 69.9786 38.6649V26.2804C70.1123 24.8024 69.6179 23.3364 68.6174 22.2414C67.6164 21.1458 66.201 20.5218 64.7176 20.5212ZM61.3019 65.3075C60.5617 65.3069 59.9618 64.707 59.9612 63.9674V41.5294H57.8026V63.9674C57.8044 64.6968 57.222 65.2936 56.4926 65.3099C55.7632 65.3262 55.1549 64.7558 55.1236 64.027L54.4803 38.7112H63.2847L62.6414 64.015C62.618 64.7371 62.0247 65.3099 61.3019 65.3075ZM67.826 26.1196C67.8224 26.1557 67.8206 26.1925 67.8206 26.2286V38.6649C67.8206 39.3027 67.3038 39.8195 66.666 39.8195C66.0282 39.8195 65.5114 39.3027 65.5114 38.6649V36.0286L65.524 35.5275H65.5114V30.3405H63.3528V36.0027L63.3389 36.552H54.4255L54.3984 35.4727H54.3852V30.3405H52.2265V38.6046C52.241 39.2527 51.7345 39.7924 51.087 39.8195C50.7792 39.8231 50.4829 39.7032 50.2642 39.487C50.045 39.2702 49.9215 38.975 49.9215 38.6673V26.2292C49.9215 26.1925 49.9197 26.1563 49.9161 26.1202C49.827 25.2408 50.1143 24.3651 50.7069 23.7098C51.299 23.0545 52.1416 22.6805 53.0252 22.6805H54.8471L58.1182 25.8618C58.1224 25.866 58.1284 25.8696 58.1333 25.8739C58.1658 25.9052 58.2001 25.9335 58.2362 25.96C58.2387 25.9618 58.2411 25.9642 58.2435 25.966C58.2832 25.9937 58.3242 26.019 58.3669 26.0413C58.3754 26.0455 58.3838 26.0497 58.3922 26.0539C58.4314 26.0738 58.4724 26.0907 58.5139 26.1057L58.5241 26.1094C58.5681 26.1244 58.6133 26.1365 58.6591 26.1455C58.6693 26.1473 58.6801 26.1491 58.691 26.1509C58.7313 26.1575 58.7723 26.1624 58.8133 26.1648C58.8193 26.1648 58.8253 26.166 58.8319 26.1666C58.8777 26.1678 58.9235 26.1666 58.9686 26.1618C58.9801 26.1612 58.9909 26.1599 59.0018 26.1581C59.0469 26.1533 59.0915 26.1449 59.1355 26.1341C59.1373 26.1341 59.1391 26.1341 59.1403 26.1334C59.1885 26.1208 59.2349 26.1051 59.2806 26.0859C59.2842 26.0847 59.2885 26.0841 59.2921 26.0823C59.2957 26.081 59.2993 26.078 59.3029 26.0762C59.3915 26.0377 59.4746 25.9877 59.5499 25.9269C59.5595 25.9184 59.5691 25.9112 59.5788 25.9022C59.5884 25.8931 59.6005 25.8847 59.6107 25.8751L63.0155 22.6805H64.7188C65.6023 22.6805 66.4444 23.0545 67.0364 23.7098C67.6291 24.3651 67.9158 25.2408 67.8266 26.1196H67.826Z" fill="#7367F0"/>
<path d="M34.8214 18.8975H34.8967C37.7052 18.8945 39.9819 16.6184 39.9849 13.8093V12.1151C39.9819 9.30655 37.7052 7.03047 34.8967 7.02686H34.8214C32.0129 7.03047 29.7368 9.30655 29.7332 12.1151V13.8087C29.7362 16.6178 32.0122 18.8945 34.8214 18.8975ZM31.8918 12.1157C31.8936 10.4985 33.2042 9.1879 34.8214 9.18609H34.8967C36.5138 9.1879 37.8244 10.4985 37.8262 12.1157V13.8093C37.8244 15.4265 36.5138 16.7371 34.8967 16.7389H34.8214C33.2042 16.7371 31.8936 15.4265 31.8918 13.8093V12.1151V12.1157Z" fill="#7367F0"/>
<path d="M40.8474 20.5212H38.7164C38.4418 20.5218 38.178 20.6266 37.978 20.8146L35.0135 23.596L32.1682 20.8266C31.9671 20.6309 31.6966 20.5212 31.416 20.5212H29.1549C27.6709 20.5212 26.2555 21.1452 25.2545 22.2402C24.2528 23.3358 23.759 24.8018 23.8921 26.2798V38.6667C23.8927 40.4946 25.3743 41.9763 27.2023 41.9775H27.2408C27.6841 41.9721 28.122 41.8757 28.5261 41.6944L29.0953 64.0933C29.1435 65.4719 29.9982 66.6928 31.2762 67.2101C32.5543 67.7281 34.0173 67.4462 35.0117 66.491C36.0073 67.448 37.4733 67.7287 38.7526 67.2083C40.0312 66.6873 40.8841 65.4623 40.9287 64.0818L41.496 41.7125C42.5199 42.1485 43.6938 42.0419 44.622 41.4288C45.5501 40.8157 46.1084 39.7773 46.1084 38.6649V26.2804C46.2421 24.8024 45.7483 23.3364 44.7472 22.2408C43.7462 21.1458 42.3308 20.5218 40.8474 20.5212ZM37.4311 65.3075C36.6915 65.3069 36.0916 64.707 36.091 63.9674V41.5294H33.9324V63.9674C33.9318 64.6955 33.35 65.29 32.6218 65.3063C31.8936 65.3225 31.2859 64.7546 31.2528 64.027L30.6101 38.7112H39.4139L38.7706 64.015C38.7478 64.7371 38.1539 65.3099 37.4311 65.3075ZM43.9558 26.1196C43.9516 26.1557 43.9498 26.1925 43.9498 26.2286V38.6649C43.9498 39.3027 43.433 39.8195 42.7952 39.8195C42.1574 39.8195 41.6406 39.3027 41.6406 38.6649V36.0286L41.6532 35.5275H41.6406V30.3405H39.482V36.0027L39.4681 36.552H30.5553L30.5276 35.4727H30.5149V30.3405H28.3563V38.6046C28.3708 39.2527 27.8636 39.7924 27.2168 39.8195C26.909 39.8231 26.612 39.7032 26.3934 39.487C26.1742 39.2702 26.0513 38.975 26.0507 38.6673V26.2292C26.0507 26.1925 26.0489 26.1563 26.0453 26.1202C25.9561 25.2408 26.244 24.3651 26.8361 23.7098C27.4288 23.0539 28.2714 22.6799 29.1549 22.6805H30.9775L34.248 25.8618C34.2528 25.866 34.2582 25.8696 34.2636 25.8739C34.2956 25.9046 34.3299 25.9335 34.366 25.96C34.3684 25.9618 34.3708 25.9642 34.3739 25.966C34.413 25.9937 34.454 26.019 34.4961 26.0407C34.5046 26.0455 34.513 26.0497 34.522 26.0539C34.5612 26.0738 34.6015 26.0907 34.6425 26.1051C34.6461 26.1069 34.6497 26.1088 34.6539 26.11C34.6979 26.1244 34.7425 26.1365 34.7882 26.1455C34.7991 26.1473 34.8093 26.1491 34.8202 26.1509C34.8605 26.1581 34.9015 26.1624 34.9424 26.1648C34.9485 26.1648 34.9551 26.166 34.9611 26.1666C35.0069 26.1678 35.0527 26.1666 35.0984 26.1618C35.1093 26.1612 35.1201 26.1599 35.1309 26.1581C35.1767 26.1533 35.2213 26.1449 35.2653 26.1341L35.2701 26.1334C35.3177 26.1208 35.3646 26.1051 35.4104 26.0859C35.414 26.0847 35.4176 26.0841 35.4213 26.0823C35.4249 26.081 35.4291 26.078 35.4327 26.0762C35.5212 26.0377 35.6044 25.9877 35.6796 25.9269C35.6893 25.9184 35.6989 25.9112 35.7086 25.9022C35.7182 25.8931 35.7302 25.8847 35.7399 25.8751L39.1447 22.6805H40.848C41.7315 22.6805 42.5735 23.0545 43.1662 23.7098C43.7583 24.3651 44.0456 25.2408 43.9558 26.1196Z" fill="#7367F0"/>
<path d="M28.1906 9.40174V7.70808C28.1875 4.89897 25.9115 2.62288 23.1023 2.61987H23.0277C20.2185 2.62288 17.9425 4.89897 17.9395 7.70808V9.40174C17.9425 12.2103 20.2185 14.4863 23.0277 14.49H23.1023C25.9115 14.4869 28.1875 12.2103 28.1906 9.40174ZM26.0319 9.40174C26.0301 11.0189 24.7201 12.3295 23.1023 12.3313H23.0277C21.4105 12.3295 20.0999 11.0189 20.0981 9.40174V7.70808C20.0999 6.09091 21.4105 4.78031 23.0277 4.77851H23.1023C24.7201 4.78031 26.0301 6.09091 26.0319 7.70808V9.40174Z" fill="#7367F0"/>
<path d="M52.0614 9.40174V7.70808C52.0584 4.89897 49.7823 2.62288 46.9732 2.61987H46.8979C44.0894 2.62288 41.8133 4.89897 41.8097 7.70808V9.40174C41.8133 12.2103 44.0894 14.4863 46.8979 14.49H46.9732C49.7823 14.4869 52.0584 12.2103 52.0614 9.40174ZM49.9028 9.40174C49.901 11.0189 48.5904 12.3295 46.9732 12.3313H46.8979C45.2807 12.3295 43.9701 11.0189 43.9683 9.40174V7.70808C43.9701 6.09091 45.2807 4.78031 46.8979 4.77851H46.9732C48.5904 4.78031 49.901 6.09091 49.9028 7.70808V9.40174Z" fill="#7367F0"/>
</g>
<defs>
<clipPath id="clip0_449:427">
<rect width="70" height="70" fill="white"/>
</clipPath>
</defs>
</svg>
