<svg width="70" height="70" viewBox="0 0 70 70" fill="none" xmlns="http://www.w3.org/2000/svg">
<path d="M47.9281 21.8859C47.7062 21.2444 47.29 20.6879 46.7372 20.2939C46.1844 19.8999 45.5226 19.688 44.8438 19.6875H43.75V17.5H44.8438C45.7132 17.4974 46.5463 17.1509 47.1611 16.5361C47.7759 15.9213 48.1224 15.0882 48.125 14.2188V5.46875C48.1224 4.59931 47.7759 3.76622 47.1611 3.15142C46.5463 2.53663 45.7132 2.1901 44.8438 2.1875H5.46875C4.59931 2.1901 3.76622 2.53663 3.15142 3.15142C2.53663 3.76622 2.1901 4.59931 2.1875 5.46875V14.2188C2.1901 15.0882 2.53663 15.9213 3.15142 16.5361C3.76622 17.1509 4.59931 17.4974 5.46875 17.5H6.5625V19.6875H5.46875C4.59931 19.6901 3.76622 20.0366 3.15142 20.6514C2.53663 21.2662 2.1901 22.0993 2.1875 22.9688V31.7188C2.1901 32.5882 2.53663 33.4213 3.15142 34.0361C3.76622 34.6509 4.59931 34.9974 5.46875 35H6.5625V37.1875H5.46875C4.59931 37.1901 3.76622 37.5366 3.15142 38.1514C2.53663 38.7662 2.1901 39.5993 2.1875 40.4688V49.2188C2.1901 50.0882 2.53663 50.9213 3.15142 51.5361C3.76622 52.1509 4.59931 52.4974 5.46875 52.5H26.25V61.25C26.25 65.5594 36.7062 67.8125 47.0312 67.8125C57.3563 67.8125 67.8125 65.5594 67.8125 61.25V28.4375C67.8125 24.2484 57.9578 22.0172 47.9281 21.8859ZM5.46875 15.3125C5.17867 15.3125 4.90047 15.1973 4.69535 14.9921C4.49023 14.787 4.375 14.5088 4.375 14.2188V5.46875C4.375 5.17867 4.49023 4.90047 4.69535 4.69535C4.90047 4.49023 5.17867 4.375 5.46875 4.375H44.8438C45.1338 4.375 45.412 4.49023 45.6171 4.69535C45.8223 4.90047 45.9375 5.17867 45.9375 5.46875V14.2188C45.9375 14.5088 45.8223 14.787 45.6171 14.9921C45.412 15.1973 45.1338 15.3125 44.8438 15.3125H5.46875ZM41.5625 17.5V19.6875H37.1875V17.5H41.5625ZM35 17.5V19.6875H15.3125V17.5H35ZM13.125 17.5V19.6875H8.75V17.5H13.125ZM26.25 50.3125H5.46875C5.17867 50.3125 4.90047 50.1973 4.69535 49.9921C4.49023 49.787 4.375 49.5088 4.375 49.2188V40.4688C4.375 40.1787 4.49023 39.9005 4.69535 39.6954C4.90047 39.4902 5.17867 39.375 5.46875 39.375H26.25V50.3125ZM8.75 37.1875V35H13.125V37.1875H8.75ZM26.25 37.1875H15.3125V35H26.25V37.1875ZM26.25 28.4375V32.8125H5.46875C5.17867 32.8125 4.90047 32.6973 4.69535 32.4921C4.49023 32.287 4.375 32.0088 4.375 31.7188V22.9688C4.375 22.6787 4.49023 22.4005 4.69535 22.1954C4.90047 21.9902 5.17867 21.875 5.46875 21.875H44.8438C44.8958 21.8807 44.9471 21.8917 44.9969 21.9078C35.3719 22.1813 26.25 24.4125 26.25 28.4375ZM65.625 61.25C65.625 62.7375 59.0625 65.625 47.0312 65.625C35 65.625 28.4375 62.7375 28.4375 61.25V53.3969C32.0359 55.6828 39.55 56.875 47.0312 56.875C54.5125 56.875 62.0266 55.6828 65.625 53.3969V61.25ZM65.625 50.3125C65.625 51.8 59.0625 54.6875 47.0312 54.6875C35 54.6875 28.4375 51.8 28.4375 50.3125V42.4594C32.0359 44.7453 39.55 45.9375 47.0312 45.9375C54.5125 45.9375 62.0266 44.7453 65.625 42.4594V50.3125ZM65.625 39.375C65.625 40.8625 59.0625 43.75 47.0312 43.75C35 43.75 28.4375 40.8625 28.4375 39.375V31.5219C32.0359 33.8078 39.55 35 47.0312 35C54.5125 35 62.0266 33.8078 65.625 31.5219V39.375ZM47.0312 32.8125C35 32.8125 28.4375 29.925 28.4375 28.4375C28.4375 26.95 35 24.0625 47.0312 24.0625C59.0625 24.0625 65.625 26.95 65.625 28.4375C65.625 29.925 59.0625 32.8125 47.0312 32.8125Z" fill="#7367F0"/>
<path d="M45.9375 38.2812H48.125V40.4688H45.9375V38.2812Z" fill="#7367F0"/>
<path d="M45.9375 50.3125H48.125V52.5H45.9375V50.3125Z" fill="#7367F0"/>
<path d="M45.9375 60.1562H48.125V62.3438H45.9375V60.1562Z" fill="#7367F0"/>
<path d="M12.0312 24.0625H7.65625C7.36617 24.0625 7.08797 24.1777 6.88285 24.3829C6.67773 24.588 6.5625 24.8662 6.5625 25.1562V29.5312C6.5625 29.8213 6.67773 30.0995 6.88285 30.3046C7.08797 30.5098 7.36617 30.625 7.65625 30.625H12.0312C12.3213 30.625 12.5995 30.5098 12.8046 30.3046C13.0098 30.0995 13.125 29.8213 13.125 29.5312V25.1562C13.125 24.8662 13.0098 24.588 12.8046 24.3829C12.5995 24.1777 12.3213 24.0625 12.0312 24.0625ZM10.9375 28.4375H8.75V26.25H10.9375V28.4375Z" fill="#7367F0"/>
<path d="M20.7812 24.0625H16.4062C16.1162 24.0625 15.838 24.1777 15.6329 24.3829C15.4277 24.588 15.3125 24.8662 15.3125 25.1562V29.5312C15.3125 29.8213 15.4277 30.0995 15.6329 30.3046C15.838 30.5098 16.1162 30.625 16.4062 30.625H20.7812C21.0713 30.625 21.3495 30.5098 21.5546 30.3046C21.7598 30.0995 21.875 29.8213 21.875 29.5312V25.1562C21.875 24.8662 21.7598 24.588 21.5546 24.3829C21.3495 24.1777 21.0713 24.0625 20.7812 24.0625ZM19.6875 28.4375H17.5V26.25H19.6875V28.4375Z" fill="#7367F0"/>
<path d="M12.0312 6.5625H7.65625C7.36617 6.5625 7.08797 6.67773 6.88285 6.88285C6.67773 7.08797 6.5625 7.36617 6.5625 7.65625V12.0312C6.5625 12.3213 6.67773 12.5995 6.88285 12.8046C7.08797 13.0098 7.36617 13.125 7.65625 13.125H12.0312C12.3213 13.125 12.5995 13.0098 12.8046 12.8046C13.0098 12.5995 13.125 12.3213 13.125 12.0312V7.65625C13.125 7.36617 13.0098 7.08797 12.8046 6.88285C12.5995 6.67773 12.3213 6.5625 12.0312 6.5625ZM10.9375 10.9375H8.75V8.75H10.9375V10.9375Z" fill="#7367F0"/>
<path d="M20.7812 6.5625H16.4062C16.1162 6.5625 15.838 6.67773 15.6329 6.88285C15.4277 7.08797 15.3125 7.36617 15.3125 7.65625V12.0312C15.3125 12.3213 15.4277 12.5995 15.6329 12.8046C15.838 13.0098 16.1162 13.125 16.4062 13.125H20.7812C21.0713 13.125 21.3495 13.0098 21.5546 12.8046C21.7598 12.5995 21.875 12.3213 21.875 12.0312V7.65625C21.875 7.36617 21.7598 7.08797 21.5546 6.88285C21.3495 6.67773 21.0713 6.5625 20.7812 6.5625ZM19.6875 10.9375H17.5V8.75H19.6875V10.9375Z" fill="#7367F0"/>
<path d="M24.0625 6.5625H39.375V8.75H24.0625V6.5625Z" fill="#7367F0"/>
<path d="M41.5625 6.5625H43.75V8.75H41.5625V6.5625Z" fill="#7367F0"/>
<path d="M24.0625 10.9375H39.375V13.125H24.0625V10.9375Z" fill="#7367F0"/>
<path d="M41.5625 10.9375H43.75V13.125H41.5625V10.9375Z" fill="#7367F0"/>
<path d="M12.0312 41.5625H7.65625C7.36617 41.5625 7.08797 41.6777 6.88285 41.8829C6.67773 42.088 6.5625 42.3662 6.5625 42.6562V47.0312C6.5625 47.3213 6.67773 47.5995 6.88285 47.8046C7.08797 48.0098 7.36617 48.125 7.65625 48.125H12.0312C12.3213 48.125 12.5995 48.0098 12.8046 47.8046C13.0098 47.5995 13.125 47.3213 13.125 47.0312V42.6562C13.125 42.3662 13.0098 42.088 12.8046 41.8829C12.5995 41.6777 12.3213 41.5625 12.0312 41.5625ZM10.9375 45.9375H8.75V43.75H10.9375V45.9375Z" fill="#7367F0"/>
<path d="M20.7812 41.5625H16.4062C16.1162 41.5625 15.838 41.6777 15.6329 41.8829C15.4277 42.088 15.3125 42.3662 15.3125 42.6562V47.0312C15.3125 47.3213 15.4277 47.5995 15.6329 47.8046C15.838 48.0098 16.1162 48.125 16.4062 48.125H20.7812C21.0713 48.125 21.3495 48.0098 21.5546 47.8046C21.7598 47.5995 21.875 47.3213 21.875 47.0312V42.6562C21.875 42.3662 21.7598 42.088 21.5546 41.8829C21.3495 41.6777 21.0713 41.5625 20.7812 41.5625ZM19.6875 45.9375H17.5V43.75H19.6875V45.9375Z" fill="#7367F0"/>
</svg>
