<svg width="66" height="70" viewBox="0 0 66 70" fill="none" xmlns="http://www.w3.org/2000/svg">
<path d="M50.9522 51.215C49.4825 51.215 48.2862 52.4112 48.2862 53.8815V67.3339C48.2862 68.8041 49.4825 69.9999 50.9522 69.9999H63.1448C64.6145 69.9999 65.8108 68.8041 65.8108 67.3339V53.8815C65.8108 52.4112 64.6145 51.215 63.1448 51.215H58.0739V47.8776C58.0739 46.6803 57.0998 45.7062 55.9024 45.7062H34.0248V42.1931H47.2256C48.619 42.1931 49.7528 41.0593 49.7528 39.666V37.4459C49.7528 36.8793 49.294 36.4205 48.7274 36.4205C48.1613 36.4205 47.702 36.8793 47.702 37.4459V39.666C47.702 39.9282 47.4884 40.1418 47.2256 40.1418H44.1452V33.3556C44.1452 32.7895 43.6864 32.3302 43.1198 32.3302C42.5531 32.3302 42.0944 32.7895 42.0944 33.3556V40.1418H24.2275V33.3556C24.2275 32.7895 23.7688 32.3302 23.2021 32.3302C22.636 32.3302 22.1767 32.7895 22.1767 33.3556V40.1418H19.0963C18.8336 40.1418 18.6199 39.9282 18.6199 39.666V32.0648C18.6199 30.116 19.8061 28.5427 21.2742 27.9045L27.7341 25.4003L28.1544 25.8462C29.4629 27.2369 31.2141 28.0027 33.0849 28.0027C34.9557 28.0027 36.7068 27.2369 38.0158 25.8462L38.4745 25.3586C45.8248 28.2057 47.702 28.1848 47.702 32.6602C47.702 33.2269 48.1613 33.6856 48.7274 33.6856C49.294 33.6856 49.7533 33.2269 49.7533 32.6602V32.0648C49.7533 27.6721 45.9828 26.0716 45.8226 26.0054C45.8162 26.0027 45.8093 26 45.8029 25.9979L38.5712 23.1973H38.5707L37.549 22.8015V21.1898C38.8302 20.1467 39.7328 18.6567 40.0185 16.96C41.7537 16.7042 42.8992 15.2665 42.8992 13.6665C42.8992 12.9039 42.6375 12.1738 42.1692 11.5901V9.0843C42.1692 4.07539 38.0938 0 33.0849 0C28.0759 0 24.0005 4.07539 24.0005 9.0843V11.6558C23.5268 12.232 23.271 12.929 23.271 13.667C23.271 15.2959 24.455 16.7192 26.1496 16.9638C26.4428 18.7304 27.3961 20.253 28.7633 21.2923V22.801C24.1138 24.604 25.2086 24.1794 20.5185 25.9973C20.5121 26 20.5057 26.0027 20.4993 26.0054C20.3391 26.071 16.5692 27.6716 16.5692 32.0642V39.6655C16.5692 41.0588 17.7024 42.1926 19.0958 42.1926H31.974V45.7062H10.0959C8.8985 45.7062 7.92438 46.6803 7.92438 47.8776V51.215H2.85351C1.38379 51.215 0.1875 52.4107 0.1875 53.881V67.3333C0.1875 68.8036 1.38379 69.9999 2.85351 69.9999H15.046C16.5157 69.9999 17.712 68.8036 17.712 67.3333V53.881C17.712 52.4107 16.5157 51.215 15.046 51.215H9.97515V47.8776C9.97515 47.8114 10.0296 47.7569 10.0959 47.7569H31.974V51.215H26.9031C25.4329 51.215 24.2371 52.4107 24.2371 53.881V67.3333C24.2371 68.8036 25.4329 69.9999 26.9031 69.9999H30.6063C31.1729 69.9999 31.6322 69.5406 31.6322 68.9745C31.6322 68.4078 31.1729 67.9491 30.6063 67.9491H26.9031C26.5699 67.9491 26.2879 67.6671 26.2879 67.3333V53.881C26.2879 53.5477 26.5699 53.2657 26.9031 53.2657H39.0951C39.4289 53.2657 39.7104 53.5477 39.7104 53.881V67.3333C39.7104 67.6671 39.4289 67.9491 39.0951 67.9491H35.392C34.8253 67.9491 34.3666 68.4078 34.3666 68.9745C34.3666 69.5406 34.8253 69.9999 35.392 69.9999H39.0951C40.5654 69.9999 41.7611 68.8036 41.7611 67.3333V53.881C41.7611 52.4107 40.5654 51.215 39.0951 51.215H34.0248V47.7569H55.9024C55.9692 47.7569 56.0231 47.8109 56.0231 47.8776V51.215H50.9522ZM40.1168 14.8174V12.5188C40.5825 12.7405 40.8484 13.1907 40.8484 13.667C40.8484 14.1525 40.5734 14.6016 40.1168 14.8174ZM26.0513 9.0843C26.0513 5.20598 29.2065 2.05078 33.0849 2.05078C36.9632 2.05078 40.1184 5.20598 40.1184 9.0843V10.3858C40.1152 10.3853 40.112 10.3847 40.1088 10.3842C40.0842 10.1433 40.0249 9.94253 39.6991 9.54733C39.4182 9.20714 38.9493 8.72542 37.8048 7.49495C37.8043 7.49495 37.8043 7.49495 37.8043 7.49495C37.2852 6.9374 36.4366 6.82738 35.7909 7.24928C33.3834 8.82208 30.4493 9.61248 27.7448 9.41809C27.0639 9.36575 26.4273 9.76309 26.1688 10.3965C26.1293 10.4034 26.0903 10.4109 26.0513 10.4189V9.0843ZM25.3218 13.667C25.3218 13.1949 25.6364 12.8024 26.0529 12.5808V14.8174C25.5958 14.6016 25.3218 14.152 25.3218 13.667ZM28.1042 15.8027V11.4902C30.8514 11.5799 33.9126 10.8205 36.5733 9.1815C37.344 10.0082 37.8454 10.5343 38.066 10.7853V15.8043C38.0612 18.4671 35.9009 20.6974 33.1714 20.6979H33.1708C30.1588 20.6979 28.1042 18.378 28.1042 15.8027ZM33.1698 22.7487H33.1708C33.9287 22.7487 34.7415 22.6173 35.4977 22.3471V22.9538C35.4977 23.6117 35.8603 24.22 36.4216 24.5415C35.5169 25.451 34.3377 25.9514 33.0843 25.9514C31.8533 25.9514 30.6928 25.4686 29.794 24.589C30.4108 24.2723 30.814 23.6267 30.814 22.9249V22.378C31.5826 22.6301 32.4039 22.7487 33.1698 22.7487ZM15.6613 53.8815V67.3339C15.6613 67.6671 15.3793 67.9491 15.046 67.9491H2.85351C2.52026 67.9491 2.23828 67.6671 2.23828 67.3339V53.8815C2.23828 53.5477 2.52026 53.2663 2.85351 53.2663H15.046C15.3793 53.2663 15.6613 53.5477 15.6613 53.8815ZM63.76 53.8815V67.3339C63.76 67.6671 63.478 67.9491 63.1448 67.9491H50.9522C50.619 67.9491 50.337 67.6671 50.337 67.3339V53.8815C50.337 53.5477 50.619 53.2663 50.9522 53.2663H63.1448C63.478 53.2663 63.76 53.5477 63.76 53.8815Z" fill="#7367F0"/>
</svg>
