<svg width="70" height="70" viewBox="0 0 70 70" fill="none" xmlns="http://www.w3.org/2000/svg">
<path d="M64.5312 2.1875H33.9062C33.0367 2.1901 32.2036 2.53663 31.5888 3.15142C30.9741 3.76622 30.6275 4.59931 30.6249 5.46875V21.3609C28.053 19.2933 24.9489 17.995 21.6708 17.6159C18.3927 17.2367 15.0742 17.7922 12.0982 19.2182C9.12222 20.6441 6.61007 22.8825 4.85164 25.6749C3.09321 28.4673 2.16016 31.7 2.16016 35C2.16016 38.3 3.09321 41.5327 4.85164 44.3251C6.61007 47.1175 9.12222 49.3559 12.0982 50.7818C15.0742 52.2078 18.3927 52.7633 21.6708 52.3841C24.9489 52.005 28.053 50.7067 30.6249 48.6391V64.5312C30.6275 65.4007 30.9741 66.2338 31.5888 66.8486C32.2036 67.4634 33.0367 67.8099 33.9062 67.8125H64.5312C65.4006 67.8099 66.2337 67.4634 66.8485 66.8486C67.4633 66.2338 67.8098 65.4007 67.8124 64.5312V5.46875C67.8098 4.59931 67.4633 3.76622 66.8485 3.15142C66.2337 2.53663 65.4006 2.1901 64.5312 2.1875ZM59.8499 4.375L59.3031 6.5625H39.1343L38.5874 4.375H59.8499ZM19.6874 50.3125C16.6589 50.3125 13.6984 49.4144 11.1802 47.7319C8.66212 46.0493 6.69948 43.6578 5.54051 40.8598C4.38154 38.0618 4.07831 34.983 4.66914 32.0127C5.25998 29.0423 6.71835 26.3139 8.85984 24.1724C11.0013 22.0309 13.7298 20.5726 16.7001 19.9817C19.6704 19.3909 22.7493 19.6941 25.5473 20.8531C28.3453 22.0121 30.7367 23.9747 32.4193 26.4928C34.1019 29.011 34.9999 31.9715 34.9999 35C34.9956 39.0598 33.3809 42.9521 30.5102 45.8228C27.6395 48.6935 23.7472 50.3082 19.6874 50.3125ZM65.6249 64.5312C65.6249 64.8213 65.5097 65.0995 65.3046 65.3046C65.0995 65.5098 64.8213 65.625 64.5312 65.625H33.9062C33.6161 65.625 33.3379 65.5098 33.1328 65.3046C32.9277 65.0995 32.8124 64.8213 32.8124 64.5312V46.5391C35.6311 43.3562 37.1874 39.2516 37.1874 35C37.1874 30.7484 35.6311 26.6438 32.8124 23.4609V5.46875C32.8124 5.17867 32.9277 4.90047 33.1328 4.69535C33.3379 4.49023 33.6161 4.375 33.9062 4.375H36.3343L37.2202 7.91875C37.2789 8.15588 37.4152 8.36656 37.6074 8.51721C37.7997 8.66786 38.0369 8.74981 38.2812 8.75H60.1562C60.4004 8.74981 60.6376 8.66786 60.8299 8.51721C61.0222 8.36656 61.1585 8.15588 61.2171 7.91875L62.1031 4.375H64.5312C64.8213 4.375 65.0995 4.49023 65.3046 4.69535C65.5097 4.90047 65.6249 5.17867 65.6249 5.46875V64.5312Z" fill="#7367F0"/>
<path d="M27.3437 5.46882H13.1249V3.28132C13.1253 3.07331 13.0663 2.86951 12.9549 2.69383C12.8435 2.51816 12.6843 2.37789 12.496 2.28949C12.3077 2.20108 12.0981 2.1682 11.8918 2.19471C11.6855 2.22121 11.491 2.306 11.3312 2.43913L4.76869 7.90788C4.64484 8.01051 4.54514 8.1392 4.47671 8.28477C4.40828 8.43034 4.3728 8.58922 4.3728 8.75007C4.3728 8.91092 4.40828 9.0698 4.47671 9.21537C4.54514 9.36094 4.64484 9.48963 4.76869 9.59226L11.3312 15.061C11.528 15.2241 11.7756 15.3131 12.0312 15.3126C12.1896 15.3126 12.3461 15.2791 12.4906 15.2141C12.6804 15.1263 12.8411 14.9858 12.9535 14.8094C13.066 14.633 13.1255 14.428 13.1249 14.2188V12.0313H27.3437C27.6338 12.0313 27.912 11.9161 28.1171 11.711C28.3222 11.5059 28.4374 11.2277 28.4374 10.9376V6.56257C28.4374 6.27249 28.3222 5.99429 28.1171 5.78917C27.912 5.58405 27.6338 5.46882 27.3437 5.46882ZM26.2499 9.84382H12.0312C11.7411 9.84382 11.4629 9.95905 11.2578 10.1642C11.0527 10.3693 10.9374 10.6475 10.9374 10.9376V11.8891L7.17494 8.75007L10.9374 5.61101V6.56257C10.9374 6.85265 11.0527 7.13085 11.2578 7.33597C11.4629 7.54109 11.7411 7.65632 12.0312 7.65632H26.2499V9.84382Z" fill="#7367F0"/>
<path d="M28.0437 60.4079L21.4812 54.9391C21.3214 54.806 21.1269 54.7212 20.9206 54.6947C20.7143 54.6682 20.5047 54.7011 20.3164 54.7895C20.1281 54.8779 19.9689 55.0182 19.8575 55.1938C19.7461 55.3695 19.6872 55.5733 19.6875 55.7813V57.9688H5.46875C5.17867 57.9688 4.90047 58.0841 4.69535 58.2892C4.49023 58.4943 4.375 58.7725 4.375 59.0626V63.4376C4.375 63.7276 4.49023 64.0058 4.69535 64.211C4.90047 64.4161 5.17867 64.5313 5.46875 64.5313H19.6875V66.7188C19.687 66.928 19.7465 67.133 19.8589 67.3094C19.9713 67.4858 20.132 67.6263 20.3219 67.7141C20.4663 67.7791 20.6229 67.8126 20.7812 67.8126C21.0368 67.8131 21.2845 67.7241 21.4812 67.561L28.0437 62.0923C28.1676 61.9896 28.2673 61.8609 28.3357 61.7154C28.4042 61.5698 28.4396 61.4109 28.4396 61.2501C28.4396 61.0892 28.4042 60.9303 28.3357 60.7848C28.2673 60.6392 28.1676 60.5105 28.0437 60.4079ZM21.875 64.3891V63.4376C21.875 63.1475 21.7598 62.8693 21.5546 62.6642C21.3495 62.459 21.0713 62.3438 20.7812 62.3438H6.5625V60.1563H20.7812C21.0713 60.1563 21.3495 60.0411 21.5546 59.836C21.7598 59.6308 21.875 59.3526 21.875 59.0626V58.111L25.6375 61.2501L21.875 64.3891Z" fill="#7367F0"/>
<path d="M19.6875 29.5312C20.2677 29.5312 20.8241 29.7617 21.2343 30.172C21.6445 30.5822 21.875 31.1386 21.875 31.7187H24.0625C24.0589 30.7516 23.7349 29.813 23.1412 29.0495C22.5476 28.2861 21.7177 27.7408 20.7813 27.4991V25.1562H18.5938V27.4991C17.5638 27.7641 16.6661 28.396 16.069 29.276C15.4719 30.156 15.2165 31.2237 15.3507 32.2787C15.485 33.3337 15.9997 34.3034 16.7981 35.0058C17.5966 35.7082 18.624 36.0951 19.6875 36.0937C20.1201 36.0937 20.5431 36.222 20.9028 36.4624C21.2625 36.7028 21.5429 37.0444 21.7085 37.4441C21.8741 37.8438 21.9174 38.2837 21.833 38.708C21.7486 39.1323 21.5402 39.5221 21.2343 39.828C20.9284 40.134 20.5386 40.3423 20.1143 40.4267C19.6899 40.5111 19.2501 40.4678 18.8504 40.3022C18.4507 40.1367 18.109 39.8563 17.8687 39.4966C17.6283 39.1368 17.5 38.7139 17.5 38.2812H15.3125C15.3161 39.2484 15.6401 40.187 16.2338 40.9505C16.8274 41.7139 17.6573 42.2592 18.5938 42.5009V44.8437H20.7813V42.5009C21.8112 42.2359 22.7089 41.604 23.306 40.724C23.9031 39.844 24.1585 38.7763 24.0243 37.7213C23.89 36.6663 23.3753 35.6966 22.5769 34.9942C21.7784 34.2918 20.751 33.9049 19.6875 33.9062C19.1073 33.9062 18.5509 33.6758 18.1407 33.2655C17.7305 32.8553 17.5 32.2989 17.5 31.7187C17.5 31.1386 17.7305 30.5822 18.1407 30.172C18.5509 29.7617 19.1073 29.5312 19.6875 29.5312Z" fill="#7367F0"/>
<path d="M10.4069 25.7197C7.94914 28.183 6.56885 31.5205 6.56885 35.0002C6.56885 38.4799 7.94914 41.8174 10.4069 44.2807L11.9534 42.7341C9.90525 40.6814 8.75497 37.9 8.75497 35.0002C8.75497 32.1004 9.90525 29.319 11.9534 27.2663L10.4069 25.7197Z" fill="#7367F0"/>
<path d="M28.968 25.7197L27.4214 27.2663C29.4696 29.319 30.6199 32.1004 30.6199 35.0002C30.6199 37.9 29.4696 40.6814 27.4214 42.7341L28.968 44.2807C31.4257 41.8174 32.806 38.4799 32.806 35.0002C32.806 31.5205 31.4257 28.183 28.968 25.7197Z" fill="#7367F0"/>
<path d="M57.3058 28.526L49.6496 25.2448C49.5133 25.1868 49.3667 25.157 49.2187 25.157C49.0706 25.157 48.924 25.1868 48.7877 25.2448L41.1315 28.526C40.9348 28.6104 40.7671 28.7505 40.6493 28.9292C40.5315 29.1079 40.4687 29.3172 40.4687 29.5312V33.3757C40.4661 34.3816 40.6629 35.3779 41.0478 36.3072C41.4326 37.2365 41.9979 38.0803 42.7108 38.7898L48.4454 44.5232C48.6505 44.7283 48.9286 44.8435 49.2187 44.8435C49.5087 44.8435 49.7868 44.7283 49.9919 44.5232L55.7265 38.7898C56.4394 38.0803 57.0047 37.2365 57.3896 36.3072C57.7744 35.3779 57.9712 34.3816 57.9686 33.3757V29.5312C57.9686 29.3172 57.9058 29.1079 57.788 28.9292C57.6702 28.7505 57.5025 28.6104 57.3058 28.526ZM55.7811 33.3757C55.7829 34.0942 55.6423 34.8059 55.3675 35.4697C55.0926 36.1335 54.689 36.7363 54.1799 37.2432L49.2187 42.2034L44.2585 37.2432C43.7491 36.7365 43.3451 36.1338 43.0701 35.4699C42.7951 34.8061 42.6544 34.0943 42.6562 33.3757V30.252L49.2187 27.4399L55.7811 30.252V33.3757Z" fill="#7367F0"/>
<path d="M47.8045 33.1331L46.2579 34.6796L48.4454 36.8671C48.6505 37.0722 48.9287 37.1874 49.2187 37.1874C49.5087 37.1874 49.7869 37.0722 49.992 36.8671L54.367 32.4921L52.8204 30.9456L49.2187 34.5473L47.8045 33.1331Z" fill="url(#paint0_linear_449:361)"/>
<defs>
<linearGradient id="paint0_linear_449:361" x1="46.2579" y1="34.0076" x2="54.367" y2="34.0076" gradientUnits="userSpaceOnUse">
<stop stop-color="#756AF0"/>
<stop offset="0.273268" stop-color="#786DF1"/>
<stop offset="0.511791" stop-color="#847AF2"/>
<stop offset="0.750314" stop-color="#938AF3"/>
<stop offset="1" stop-color="#9990F5"/>
</linearGradient>
</defs>
</svg>
